<svg width="14" height="17" viewBox="0 0 14 17" fill="none" xmlns="http://www.w3.org/2000/svg">
<path d="M7.04614 0.281616C4.80608 0.281616 2.98364 2.10405 2.98364 4.34412V6.78162H2.17114C1.27496 6.78162 0.546143 7.51043 0.546143 8.40662V14.9066C0.546143 15.8028 1.27496 16.5316 2.17114 16.5316H11.9211C12.8173 16.5316 13.5461 15.8028 13.5461 14.9066V8.40662C13.5461 7.51043 12.8173 6.78162 11.9211 6.78162H11.1086V4.34412C11.1086 2.10405 9.28621 0.281616 7.04614 0.281616ZM11.9211 8.40662L11.9228 14.9066H2.17114V8.40662H11.9211ZM4.60864 6.78162V4.34412C4.60864 3.00024 5.70227 1.90662 7.04614 1.90662C8.39002 1.90662 9.48364 3.00024 9.48364 4.34412V6.78162H4.60864Z" fill="#8DC1D0"/>
</svg>
