<svg width="18" height="14" viewBox="0 0 18 14" fill="none" xmlns="http://www.w3.org/2000/svg">
<path d="M17.8179 6.05602C15.9136 2.07427 13.0351 0.0704346 9.17632 0.0704346C5.31551 0.0704346 2.43899 2.07427 0.534697 6.05801C0.458315 6.21855 0.418701 6.39389 0.418701 6.57143C0.418701 6.74897 0.458315 6.92431 0.534697 7.08485C2.43899 11.0666 5.31752 13.0704 9.17632 13.0704C13.0371 13.0704 15.9136 11.0666 17.8179 7.08286C17.9726 6.75985 17.9726 6.385 17.8179 6.05602ZM9.17632 11.6349C5.93621 11.6349 3.56388 10.0039 1.8906 6.57043C3.56388 3.137 5.93621 1.50602 9.17632 1.50602C12.4164 1.50602 14.7887 3.137 16.462 6.57043C14.7908 10.0039 12.4184 11.6349 9.17632 11.6349ZM9.09597 3.06123C7.14347 3.06123 5.56058 4.6324 5.56058 6.57043C5.56058 8.50847 7.14347 10.0796 9.09597 10.0796C11.0485 10.0796 12.6314 8.50847 12.6314 6.57043C12.6314 4.6324 11.0485 3.06123 9.09597 3.06123ZM9.09597 8.80356C7.85255 8.80356 6.84617 7.80464 6.84617 6.57043C6.84617 5.33623 7.85255 4.33731 9.09597 4.33731C10.3394 4.33731 11.3458 5.33623 11.3458 6.57043C11.3458 7.80464 10.3394 8.80356 9.09597 8.80356Z" fill="#8DC1D0"/>
</svg>
