<svg width="17" height="17" viewBox="0 0 17 17" fill="none" xmlns="http://www.w3.org/2000/svg">
<path fill-rule="evenodd" clip-rule="evenodd" d="M11.0389 11.0227C11.1318 10.9297 11.2421 10.8559 11.3635 10.8056C11.4849 10.7553 11.615 10.7294 11.7464 10.7294C11.8778 10.7294 12.008 10.7553 12.1294 10.8056C12.2508 10.8559 12.3611 10.9297 12.4539 11.0227L16.3039 14.8727C16.4916 15.0602 16.597 15.3145 16.5971 15.5798C16.5972 15.8451 16.4919 16.0995 16.3044 16.2872C16.1169 16.4748 15.8625 16.5803 15.5973 16.5804C15.332 16.5805 15.0776 16.4752 14.8899 16.2877L11.0399 12.4377C10.9469 12.3448 10.8732 12.2345 10.8229 12.1131C10.7725 11.9917 10.7466 11.8616 10.7466 11.7302C10.7466 11.5987 10.7725 11.4686 10.8229 11.3472C10.8732 11.2258 10.9469 11.1155 11.0399 11.0227H11.0389Z" fill="#313E41"/>
<path fill-rule="evenodd" clip-rule="evenodd" d="M7.09692 12.5807C7.81919 12.5807 8.53439 12.4384 9.20168 12.162C9.86897 11.8856 10.4753 11.4805 10.986 10.9698C11.4967 10.4591 11.9019 9.85274 12.1783 9.18545C12.4547 8.51816 12.5969 7.80296 12.5969 7.08069C12.5969 6.35842 12.4547 5.64322 12.1783 4.97593C11.9019 4.30864 11.4967 3.70232 10.986 3.1916C10.4753 2.68088 9.86897 2.27575 9.20168 1.99935C8.53439 1.72295 7.81919 1.58069 7.09692 1.58069C5.63823 1.58069 4.23929 2.16015 3.20784 3.1916C2.17639 4.22305 1.59692 5.622 1.59692 7.08069C1.59692 8.53938 2.17639 9.93833 3.20784 10.9698C4.23929 12.0012 5.63823 12.5807 7.09692 12.5807ZM13.5969 7.08069C13.5969 8.8046 12.9121 10.4579 11.6931 11.6769C10.4741 12.8959 8.82083 13.5807 7.09692 13.5807C5.37302 13.5807 3.71972 12.8959 2.50073 11.6769C1.28174 10.4579 0.596924 8.8046 0.596924 7.08069C0.596924 5.35678 1.28174 3.70348 2.50073 2.48449C3.71972 1.26551 5.37302 0.580688 7.09692 0.580688C8.82083 0.580688 10.4741 1.26551 11.6931 2.48449C12.9121 3.70348 13.5969 5.35678 13.5969 7.08069Z" fill="#313E41"/>
</svg>
