<svg width="25" height="26" viewBox="0 0 25 26" fill="none" xmlns="http://www.w3.org/2000/svg">
<rect x="0.0786133" y="0.748535" width="24.5952" height="25" rx="12.2976" fill="#7FBA00"/>
<mask id="mask0" mask-type="alpha" maskUnits="userSpaceOnUse" x="2" y="1" width="20" height="24">
<path d="M12.3759 3.27906C13.1714 3.27906 13.949 3.52049 14.6104 3.97281C15.2718 4.42513 15.7874 5.06803 16.0918 5.82021C16.3962 6.57239 16.4758 7.40007 16.3207 8.19858C16.1655 8.99709 15.7824 9.73057 15.2199 10.3063C14.6574 10.882 13.9408 11.274 13.1606 11.4328C12.3804 11.5917 11.5717 11.5102 10.8368 11.1986C10.1018 10.887 9.4737 10.3594 9.03175 9.68248C8.58981 9.00553 8.35392 8.20966 8.35392 7.3955C8.35392 6.30375 8.77767 5.25672 9.53194 4.48474C10.2862 3.71276 11.3092 3.27906 12.3759 3.27906ZM12.3759 1.63248C11.2623 1.63248 10.1736 1.97048 9.24762 2.60373C8.32164 3.23698 7.59992 4.13704 7.17374 5.19009C6.74756 6.24315 6.63605 7.4019 6.85331 8.51981C7.07058 9.63773 7.60686 10.6646 8.39435 11.4706C9.18183 12.2765 10.1851 12.8254 11.2774 13.0478C12.3697 13.2702 13.5018 13.156 14.5307 12.7198C15.5596 12.2836 16.4391 11.545 17.0578 10.5973C17.6765 9.64954 18.0067 8.53532 18.0067 7.3955C18.0067 5.86706 17.4135 4.40121 16.3575 3.32043C15.3015 2.23966 13.8693 1.63248 12.3759 1.63248Z" fill="white"/>
<path d="M21.8466 24.6846H19.9526V20.5681C19.9526 19.4764 19.4537 18.4293 18.5657 17.6573C17.6777 16.8854 16.4733 16.4517 15.2175 16.4517H9.53545C8.27964 16.4517 7.07526 16.8854 6.18726 17.6573C5.29926 18.4293 4.80039 19.4764 4.80039 20.5681V24.6846H2.90637V20.5681C2.90637 19.0397 3.60479 17.5738 4.84798 16.493C6.09118 15.4123 7.77731 14.8051 9.53545 14.8051H15.2175C16.9757 14.8051 18.6618 15.4123 19.905 16.493C21.1482 17.5738 21.8466 19.0397 21.8466 20.5681V24.6846Z" fill="white"/>
</mask>
<g mask="url(#mask0)">
<rect x="0.0783691" y="0.748489" width="24.5952" height="25" rx="12.2976" fill="white"/>
</g>
</svg>
